<?xml version="1.0" encoding="utf-8"?>
<!-- Generator: Adobe Illustrator 18.1.1, SVG Export Plug-In . SVG Version: 6.00 Build 0)  -->
<svg version="1.1" id="Layer_1" xmlns="http://www.w3.org/2000/svg" xmlns:xlink="http://www.w3.org/1999/xlink" x="0px" y="0px"
	 viewBox="-293 388 24 18" enable-background="new -293 388 24 18" xml:space="preserve">
<path d="M-271.3,388.2c-0.3-0.3-0.8-0.3-1.1,0l-11.2,11.1c-0.3,0.3-0.8,0.3-1.1,0l-4.9-5c-0.1-0.1-0.3-0.2-0.5-0.2
	c-0.2,0-0.4,0.1-0.5,0.2l-2.2,1.9c-0.1,0.1-0.2,0.3-0.2,0.5c0,0.2,0.1,0.4,0.2,0.5l4.9,5.2c0.3,0.3,0.8,0.8,1.1,1.1l2.1,2.1
	c0.3,0.3,0.8,0.3,1.1,0l14.4-14.3c0.3-0.3,0.3-0.8,0-1.1L-271.3,388.2z"/>
</svg>
